<mxfile host="app.diagrams.net" modified="2024-05-20T16:14:16.382Z" agent="Mozilla/5.0 (Windows NT 10.0; Win64; x64) AppleWebKit/537.36 (KHTML, like Gecko) Chrome/125.0.0.0 Safari/537.36 Edg/125.0.0.0" version="24.4.4" etag="Kya8Sqi01lAWFYDwV3sR" type="github">
  <diagram name="Trang-1" id="h0WIIZEGrvnu7iz7GJaU">
    <mxGraphModel>
      <root>
        <mxCell id="0" />
        <mxCell id="1" parent="0" />
      </root>
    </mxGraphModel>
  </diagram>
</mxfile>
